<mxfile host="Electron" modified="2023-09-13T06:32:29.753Z" agent="Mozilla/5.0 (Windows NT 10.0; Win64; x64) AppleWebKit/537.36 (KHTML, like Gecko) draw.io/21.6.8 Chrome/114.0.5735.289 Electron/25.5.0 Safari/537.36" etag="9ZJEWT3eFNNC6imoCjfk" version="21.6.8" type="device">
  <diagram name="Page-1" id="NbAiRLBSEswxmvlfUeNJ">
    <mxGraphModel dx="2410" dy="992" grid="1" gridSize="10" guides="1" tooltips="1" connect="1" arrows="1" fold="1" page="1" pageScale="1" pageWidth="850" pageHeight="1100" math="0" shadow="0">
      <root>
        <mxCell id="0" />
        <mxCell id="1" parent="0" />
        <mxCell id="WNf-GUEkFoGAXc6KpcuH-3" value="" style="edgeStyle=orthogonalEdgeStyle;rounded=0;orthogonalLoop=1;jettySize=auto;html=1;" parent="1" source="WNf-GUEkFoGAXc6KpcuH-1" target="WNf-GUEkFoGAXc6KpcuH-2" edge="1">
          <mxGeometry relative="1" as="geometry" />
        </mxCell>
        <mxCell id="WNf-GUEkFoGAXc6KpcuH-1" value="&lt;b style=&quot;font-size: 16px;&quot;&gt;&lt;font style=&quot;font-size: 16px;&quot;&gt;START&lt;/font&gt;&lt;/b&gt;" style="ellipse;whiteSpace=wrap;html=1;fontSize=16;" parent="1" vertex="1">
          <mxGeometry x="190" y="30" width="120" height="60" as="geometry" />
        </mxCell>
        <mxCell id="WNf-GUEkFoGAXc6KpcuH-60" value="" style="edgeStyle=orthogonalEdgeStyle;rounded=0;orthogonalLoop=1;jettySize=auto;html=1;" parent="1" source="WNf-GUEkFoGAXc6KpcuH-2" target="WNf-GUEkFoGAXc6KpcuH-58" edge="1">
          <mxGeometry relative="1" as="geometry" />
        </mxCell>
        <mxCell id="WNf-GUEkFoGAXc6KpcuH-2" value="Login Page" style="whiteSpace=wrap;html=1;" parent="1" vertex="1">
          <mxGeometry x="190" y="130" width="120" height="60" as="geometry" />
        </mxCell>
        <mxCell id="WNf-GUEkFoGAXc6KpcuH-43" value="" style="edgeStyle=orthogonalEdgeStyle;rounded=0;orthogonalLoop=1;jettySize=auto;html=1;" parent="1" source="WNf-GUEkFoGAXc6KpcuH-4" target="WNf-GUEkFoGAXc6KpcuH-8" edge="1">
          <mxGeometry relative="1" as="geometry" />
        </mxCell>
        <mxCell id="WNf-GUEkFoGAXc6KpcuH-46" value="" style="edgeStyle=orthogonalEdgeStyle;rounded=0;orthogonalLoop=1;jettySize=auto;html=1;" parent="1" source="WNf-GUEkFoGAXc6KpcuH-4" target="WNf-GUEkFoGAXc6KpcuH-45" edge="1">
          <mxGeometry relative="1" as="geometry" />
        </mxCell>
        <mxCell id="WNf-GUEkFoGAXc6KpcuH-4" value="Lupa password?" style="rhombus;whiteSpace=wrap;html=1;" parent="1" vertex="1">
          <mxGeometry x="210" y="372" width="80" height="80" as="geometry" />
        </mxCell>
        <mxCell id="WNf-GUEkFoGAXc6KpcuH-13" value="" style="edgeStyle=orthogonalEdgeStyle;rounded=0;orthogonalLoop=1;jettySize=auto;html=1;" parent="1" source="WNf-GUEkFoGAXc6KpcuH-8" target="WNf-GUEkFoGAXc6KpcuH-12" edge="1">
          <mxGeometry relative="1" as="geometry" />
        </mxCell>
        <mxCell id="WNf-GUEkFoGAXc6KpcuH-8" value="Login" style="whiteSpace=wrap;html=1;" parent="1" vertex="1">
          <mxGeometry x="190" y="520" width="120" height="60" as="geometry" />
        </mxCell>
        <mxCell id="WNf-GUEkFoGAXc6KpcuH-15" value="" style="edgeStyle=orthogonalEdgeStyle;rounded=0;orthogonalLoop=1;jettySize=auto;html=1;" parent="1" source="WNf-GUEkFoGAXc6KpcuH-12" target="WNf-GUEkFoGAXc6KpcuH-14" edge="1">
          <mxGeometry relative="1" as="geometry" />
        </mxCell>
        <mxCell id="WNf-GUEkFoGAXc6KpcuH-12" value="Masukkan username&lt;br&gt;&amp;amp; password" style="shape=parallelogram;perimeter=parallelogramPerimeter;whiteSpace=wrap;html=1;fixedSize=1;" parent="1" vertex="1">
          <mxGeometry x="170" y="655.25" width="160" height="60" as="geometry" />
        </mxCell>
        <mxCell id="WNf-GUEkFoGAXc6KpcuH-17" value="" style="edgeStyle=orthogonalEdgeStyle;rounded=0;orthogonalLoop=1;jettySize=auto;html=1;" parent="1" source="WNf-GUEkFoGAXc6KpcuH-14" target="WNf-GUEkFoGAXc6KpcuH-16" edge="1">
          <mxGeometry relative="1" as="geometry" />
        </mxCell>
        <mxCell id="O1wI0yBCKFcF8gpkczib-3" value="Ya" style="edgeLabel;html=1;align=center;verticalAlign=middle;resizable=0;points=[];" parent="WNf-GUEkFoGAXc6KpcuH-17" vertex="1" connectable="0">
          <mxGeometry x="-0.1422" y="-1" relative="1" as="geometry">
            <mxPoint as="offset" />
          </mxGeometry>
        </mxCell>
        <mxCell id="WNf-GUEkFoGAXc6KpcuH-14" value="Valid?" style="rhombus;whiteSpace=wrap;html=1;" parent="1" vertex="1">
          <mxGeometry x="210" y="770" width="80" height="80" as="geometry" />
        </mxCell>
        <mxCell id="WNf-GUEkFoGAXc6KpcuH-19" value="" style="edgeStyle=orthogonalEdgeStyle;rounded=0;orthogonalLoop=1;jettySize=auto;html=1;" parent="1" source="WNf-GUEkFoGAXc6KpcuH-16" target="WNf-GUEkFoGAXc6KpcuH-18" edge="1">
          <mxGeometry relative="1" as="geometry" />
        </mxCell>
        <mxCell id="WNf-GUEkFoGAXc6KpcuH-16" value="Home Page" style="whiteSpace=wrap;html=1;" parent="1" vertex="1">
          <mxGeometry x="190" y="910" width="120" height="60" as="geometry" />
        </mxCell>
        <mxCell id="WNf-GUEkFoGAXc6KpcuH-18" value="&lt;font style=&quot;font-size: 16px;&quot;&gt;&lt;b style=&quot;font-size: 16px;&quot;&gt;END&lt;/b&gt;&lt;/font&gt;" style="ellipse;whiteSpace=wrap;html=1;fontSize=16;fontFamily=Helvetica;" parent="1" vertex="1">
          <mxGeometry x="210" y="1010" width="80" height="50" as="geometry" />
        </mxCell>
        <mxCell id="WNf-GUEkFoGAXc6KpcuH-48" value="" style="edgeStyle=orthogonalEdgeStyle;rounded=0;orthogonalLoop=1;jettySize=auto;html=1;" parent="1" source="WNf-GUEkFoGAXc6KpcuH-45" target="WNf-GUEkFoGAXc6KpcuH-47" edge="1">
          <mxGeometry relative="1" as="geometry" />
        </mxCell>
        <mxCell id="WNf-GUEkFoGAXc6KpcuH-82" value="Ya" style="edgeLabel;html=1;align=center;verticalAlign=middle;resizable=0;points=[];" parent="WNf-GUEkFoGAXc6KpcuH-48" vertex="1" connectable="0">
          <mxGeometry x="-0.0202" y="1" relative="1" as="geometry">
            <mxPoint x="-1" as="offset" />
          </mxGeometry>
        </mxCell>
        <mxCell id="WNf-GUEkFoGAXc6KpcuH-45" value="Masukkan email/username" style="shape=parallelogram;perimeter=parallelogramPerimeter;whiteSpace=wrap;html=1;fixedSize=1;" parent="1" vertex="1">
          <mxGeometry x="30" y="382" width="120" height="60" as="geometry" />
        </mxCell>
        <mxCell id="WNf-GUEkFoGAXc6KpcuH-50" value="" style="edgeStyle=orthogonalEdgeStyle;rounded=0;orthogonalLoop=1;jettySize=auto;html=1;" parent="1" source="WNf-GUEkFoGAXc6KpcuH-47" target="WNf-GUEkFoGAXc6KpcuH-49" edge="1">
          <mxGeometry relative="1" as="geometry" />
        </mxCell>
        <mxCell id="WNf-GUEkFoGAXc6KpcuH-47" value="Valid?" style="rhombus;whiteSpace=wrap;html=1;" parent="1" vertex="1">
          <mxGeometry x="-150" y="372" width="80" height="80" as="geometry" />
        </mxCell>
        <mxCell id="WNf-GUEkFoGAXc6KpcuH-52" value="" style="edgeStyle=orthogonalEdgeStyle;rounded=0;orthogonalLoop=1;jettySize=auto;html=1;" parent="1" source="WNf-GUEkFoGAXc6KpcuH-49" target="WNf-GUEkFoGAXc6KpcuH-51" edge="1">
          <mxGeometry relative="1" as="geometry" />
        </mxCell>
        <mxCell id="WNf-GUEkFoGAXc6KpcuH-49" value="Mengirim reset password ke email" style="whiteSpace=wrap;html=1;" parent="1" vertex="1">
          <mxGeometry x="-170" y="542" width="120" height="60" as="geometry" />
        </mxCell>
        <mxCell id="WNf-GUEkFoGAXc6KpcuH-54" value="" style="edgeStyle=orthogonalEdgeStyle;rounded=0;orthogonalLoop=1;jettySize=auto;html=1;" parent="1" source="WNf-GUEkFoGAXc6KpcuH-51" target="WNf-GUEkFoGAXc6KpcuH-53" edge="1">
          <mxGeometry relative="1" as="geometry" />
        </mxCell>
        <mxCell id="WNf-GUEkFoGAXc6KpcuH-51" value="Input password &lt;br&gt;baru" style="shape=parallelogram;perimeter=parallelogramPerimeter;whiteSpace=wrap;html=1;fixedSize=1;" parent="1" vertex="1">
          <mxGeometry x="-170" y="682" width="120" height="60" as="geometry" />
        </mxCell>
        <mxCell id="WNf-GUEkFoGAXc6KpcuH-53" value="Sesuai syarat?" style="rhombus;whiteSpace=wrap;html=1;" parent="1" vertex="1">
          <mxGeometry x="-150" y="810" width="80" height="80" as="geometry" />
        </mxCell>
        <mxCell id="WNf-GUEkFoGAXc6KpcuH-56" value="" style="endArrow=classic;html=1;rounded=0;exitX=0;exitY=0.5;exitDx=0;exitDy=0;" parent="1" source="WNf-GUEkFoGAXc6KpcuH-53" target="WNf-GUEkFoGAXc6KpcuH-51" edge="1">
          <mxGeometry width="50" height="50" relative="1" as="geometry">
            <mxPoint x="-290" y="839.9999999999998" as="sourcePoint" />
            <mxPoint x="-280" y="699.9999999999998" as="targetPoint" />
            <Array as="points">
              <mxPoint x="-220" y="850" />
              <mxPoint x="-220" y="710" />
            </Array>
          </mxGeometry>
        </mxCell>
        <mxCell id="WNf-GUEkFoGAXc6KpcuH-81" value="Tidak" style="edgeLabel;html=1;align=center;verticalAlign=middle;resizable=0;points=[];" parent="WNf-GUEkFoGAXc6KpcuH-56" vertex="1" connectable="0">
          <mxGeometry x="-0.6851" y="1" relative="1" as="geometry">
            <mxPoint as="offset" />
          </mxGeometry>
        </mxCell>
        <mxCell id="WNf-GUEkFoGAXc6KpcuH-57" value="" style="endArrow=classic;html=1;rounded=0;entryX=0.562;entryY=0.019;entryDx=0;entryDy=0;entryPerimeter=0;" parent="1" target="WNf-GUEkFoGAXc6KpcuH-45" edge="1">
          <mxGeometry width="50" height="50" relative="1" as="geometry">
            <mxPoint x="-110" y="372" as="sourcePoint" />
            <mxPoint x="100" y="322" as="targetPoint" />
            <Array as="points">
              <mxPoint x="-110" y="322" />
              <mxPoint x="97" y="322" />
            </Array>
          </mxGeometry>
        </mxCell>
        <mxCell id="WNf-GUEkFoGAXc6KpcuH-83" value="Tidak" style="edgeLabel;html=1;align=center;verticalAlign=middle;resizable=0;points=[];" parent="WNf-GUEkFoGAXc6KpcuH-57" vertex="1" connectable="0">
          <mxGeometry x="-0.115" y="-2" relative="1" as="geometry">
            <mxPoint x="-1" as="offset" />
          </mxGeometry>
        </mxCell>
        <mxCell id="WNf-GUEkFoGAXc6KpcuH-61" value="Sudah" style="edgeStyle=orthogonalEdgeStyle;rounded=0;orthogonalLoop=1;jettySize=auto;html=1;" parent="1" source="WNf-GUEkFoGAXc6KpcuH-58" target="WNf-GUEkFoGAXc6KpcuH-4" edge="1">
          <mxGeometry x="-0.2308" relative="1" as="geometry">
            <mxPoint as="offset" />
          </mxGeometry>
        </mxCell>
        <mxCell id="WNf-GUEkFoGAXc6KpcuH-63" value="Belum" style="edgeStyle=orthogonalEdgeStyle;rounded=0;orthogonalLoop=1;jettySize=auto;html=1;" parent="1" source="WNf-GUEkFoGAXc6KpcuH-58" target="WNf-GUEkFoGAXc6KpcuH-62" edge="1">
          <mxGeometry x="-0.0053" relative="1" as="geometry">
            <mxPoint as="offset" />
          </mxGeometry>
        </mxCell>
        <mxCell id="WNf-GUEkFoGAXc6KpcuH-58" value="Punya akun?" style="rhombus;whiteSpace=wrap;html=1;" parent="1" vertex="1">
          <mxGeometry x="210" y="240" width="80" height="80" as="geometry" />
        </mxCell>
        <mxCell id="WNf-GUEkFoGAXc6KpcuH-65" value="" style="edgeStyle=orthogonalEdgeStyle;rounded=0;orthogonalLoop=1;jettySize=auto;html=1;" parent="1" source="WNf-GUEkFoGAXc6KpcuH-62" target="WNf-GUEkFoGAXc6KpcuH-64" edge="1">
          <mxGeometry relative="1" as="geometry" />
        </mxCell>
        <mxCell id="WNf-GUEkFoGAXc6KpcuH-62" value="Sign up" style="whiteSpace=wrap;html=1;" parent="1" vertex="1">
          <mxGeometry x="380" y="250" width="120" height="60" as="geometry" />
        </mxCell>
        <mxCell id="WNf-GUEkFoGAXc6KpcuH-69" value="" style="edgeStyle=orthogonalEdgeStyle;rounded=0;orthogonalLoop=1;jettySize=auto;html=1;" parent="1" source="WNf-GUEkFoGAXc6KpcuH-64" target="WNf-GUEkFoGAXc6KpcuH-68" edge="1">
          <mxGeometry relative="1" as="geometry" />
        </mxCell>
        <mxCell id="WNf-GUEkFoGAXc6KpcuH-64" value="Masukkan email/&lt;br&gt;no telp" style="shape=parallelogram;perimeter=parallelogramPerimeter;whiteSpace=wrap;html=1;fixedSize=1;" parent="1" vertex="1">
          <mxGeometry x="550" y="250" width="120" height="60" as="geometry" />
        </mxCell>
        <mxCell id="WNf-GUEkFoGAXc6KpcuH-71" value="" style="edgeStyle=orthogonalEdgeStyle;rounded=0;orthogonalLoop=1;jettySize=auto;html=1;" parent="1" source="WNf-GUEkFoGAXc6KpcuH-68" target="WNf-GUEkFoGAXc6KpcuH-70" edge="1">
          <mxGeometry relative="1" as="geometry" />
        </mxCell>
        <mxCell id="WNf-GUEkFoGAXc6KpcuH-68" value="Buat kata sandi&amp;nbsp;&lt;br&gt;yang kuat" style="whiteSpace=wrap;html=1;" parent="1" vertex="1">
          <mxGeometry x="550" y="390" width="120" height="60" as="geometry" />
        </mxCell>
        <mxCell id="Cc-Q6-uRxJjGSrJ2Ldwq-3" value="" style="edgeStyle=orthogonalEdgeStyle;rounded=0;orthogonalLoop=1;jettySize=auto;html=1;" edge="1" parent="1" source="WNf-GUEkFoGAXc6KpcuH-70" target="Cc-Q6-uRxJjGSrJ2Ldwq-2">
          <mxGeometry relative="1" as="geometry" />
        </mxCell>
        <mxCell id="WNf-GUEkFoGAXc6KpcuH-70" value="Masukkan &lt;br&gt;username" style="shape=parallelogram;perimeter=parallelogramPerimeter;whiteSpace=wrap;html=1;fixedSize=1;" parent="1" vertex="1">
          <mxGeometry x="550" y="530" width="120" height="60" as="geometry" />
        </mxCell>
        <mxCell id="WNf-GUEkFoGAXc6KpcuH-74" value="" style="endArrow=classic;html=1;rounded=0;entryX=1;entryY=0.5;entryDx=0;entryDy=0;exitX=0;exitY=0.5;exitDx=0;exitDy=0;" parent="1" source="Cc-Q6-uRxJjGSrJ2Ldwq-2" target="WNf-GUEkFoGAXc6KpcuH-8" edge="1">
          <mxGeometry width="50" height="50" relative="1" as="geometry">
            <mxPoint x="550" y="700" as="sourcePoint" />
            <mxPoint x="380" y="560" as="targetPoint" />
            <Array as="points">
              <mxPoint x="440" y="700" />
              <mxPoint x="440" y="550" />
            </Array>
          </mxGeometry>
        </mxCell>
        <mxCell id="WNf-GUEkFoGAXc6KpcuH-78" value="Sudah" style="edgeLabel;html=1;align=center;verticalAlign=middle;resizable=0;points=[];" parent="WNf-GUEkFoGAXc6KpcuH-74" vertex="1" connectable="0">
          <mxGeometry x="-0.6108" y="-1" relative="1" as="geometry">
            <mxPoint x="16" y="1" as="offset" />
          </mxGeometry>
        </mxCell>
        <mxCell id="WNf-GUEkFoGAXc6KpcuH-76" value="" style="endArrow=classic;html=1;rounded=0;entryX=0;entryY=0.5;entryDx=0;entryDy=0;" parent="1" target="WNf-GUEkFoGAXc6KpcuH-8" edge="1">
          <mxGeometry width="50" height="50" relative="1" as="geometry">
            <mxPoint x="-70" y="850" as="sourcePoint" />
            <mxPoint x="-20" y="800" as="targetPoint" />
            <Array as="points">
              <mxPoint x="50" y="850" />
              <mxPoint x="50" y="550" />
            </Array>
          </mxGeometry>
        </mxCell>
        <mxCell id="WNf-GUEkFoGAXc6KpcuH-80" value="Ya" style="edgeLabel;html=1;align=center;verticalAlign=middle;resizable=0;points=[];" parent="WNf-GUEkFoGAXc6KpcuH-76" vertex="1" connectable="0">
          <mxGeometry x="-0.8472" y="1" relative="1" as="geometry">
            <mxPoint as="offset" />
          </mxGeometry>
        </mxCell>
        <mxCell id="WNf-GUEkFoGAXc6KpcuH-77" value="" style="endArrow=classic;html=1;rounded=0;entryX=1;entryY=0.5;entryDx=0;entryDy=0;exitX=1;exitY=0.5;exitDx=0;exitDy=0;" parent="1" target="WNf-GUEkFoGAXc6KpcuH-64" edge="1" source="Cc-Q6-uRxJjGSrJ2Ldwq-2">
          <mxGeometry width="50" height="50" relative="1" as="geometry">
            <mxPoint x="670" y="700" as="sourcePoint" />
            <mxPoint x="720" y="650" as="targetPoint" />
            <Array as="points">
              <mxPoint x="730" y="700" />
              <mxPoint x="730" y="280" />
            </Array>
          </mxGeometry>
        </mxCell>
        <mxCell id="WNf-GUEkFoGAXc6KpcuH-79" value="Belum" style="edgeLabel;html=1;align=center;verticalAlign=middle;resizable=0;points=[];" parent="WNf-GUEkFoGAXc6KpcuH-77" vertex="1" connectable="0">
          <mxGeometry x="-0.8784" y="-1" relative="1" as="geometry">
            <mxPoint x="45" y="-71" as="offset" />
          </mxGeometry>
        </mxCell>
        <mxCell id="O1wI0yBCKFcF8gpkczib-2" value="" style="endArrow=classic;html=1;rounded=0;entryX=0.072;entryY=0.392;entryDx=0;entryDy=0;entryPerimeter=0;exitX=0;exitY=0.5;exitDx=0;exitDy=0;exitPerimeter=0;" parent="1" source="WNf-GUEkFoGAXc6KpcuH-14" target="WNf-GUEkFoGAXc6KpcuH-12" edge="1">
          <mxGeometry width="50" height="50" relative="1" as="geometry">
            <mxPoint x="210" y="820" as="sourcePoint" />
            <mxPoint x="120" y="820" as="targetPoint" />
            <Array as="points">
              <mxPoint x="120" y="810" />
              <mxPoint x="120" y="679" />
            </Array>
          </mxGeometry>
        </mxCell>
        <mxCell id="O1wI0yBCKFcF8gpkczib-4" value="Tidak" style="edgeLabel;html=1;align=center;verticalAlign=middle;resizable=0;points=[];" parent="O1wI0yBCKFcF8gpkczib-2" vertex="1" connectable="0">
          <mxGeometry x="-0.6832" relative="1" as="geometry">
            <mxPoint as="offset" />
          </mxGeometry>
        </mxCell>
        <mxCell id="Cc-Q6-uRxJjGSrJ2Ldwq-2" value="Verifikasi" style="rhombus;whiteSpace=wrap;html=1;" vertex="1" parent="1">
          <mxGeometry x="570" y="660" width="80" height="80" as="geometry" />
        </mxCell>
      </root>
    </mxGraphModel>
  </diagram>
</mxfile>
